<svg xmlns="http://www.w3.org/2000/svg" width="24" height="24" fill="#3b82f6" viewBox="0 0 24 24">
  <path d="M19.43 12.98c.04-.32.07-.65.07-.98s-.03-.66-.07-.98l2.11-1.65a.5.5 0 0 0 .11-.65l-2-3.46a.5.5 0 0 0-.61-.2l-2.49 1a6.988 6.988 0 0 0-1.69-.98l-.38-2.65A.5.5 0 0 0 14 2h-4a.5.5 0 0 0-.5.42l-.38 2.65c-.63.25-1.21.59-1.69.98l-2.49-1a.5.5 0 0 0-.61.2l-2 3.46a.5.5 0 0 0 .11.65l2.11 1.65c-.04.32-.07.65-.07.98s.03.66.07.98l-2.11 1.65a.5.5 0 0 0-.11.65l2 3.46c.14.24.44.33.68.2l2.49-1c.48.39 1.06.73 1.69.98l.38 2.65c.05.27.28.47.55.47h4c.27 0 .5-.2.55-.47l.38-2.65c.63-.25 1.21-.59 1.69-.98l2.49 1c.24.13.54.04.68-.2l2-3.46a.5.5 0 0 0-.11-.65l-2.11-1.65zM12 15.5c-1.93 0-3.5-1.57-3.5-3.5S10.07 8.5 12 8.5s3.5 1.57 3.5 3.5-1.57 3.5-3.5 3.5z"></path>
</svg>